<svg width="22" height="22" viewBox="0 0 22 22" fill="none" xmlns="http://www.w3.org/2000/svg">
<path d="M21.6709 13.661C20.2017 19.5539 14.2332 23.1402 8.33956 21.6707C2.44841 20.2015 -1.1379 14.2326 0.331875 8.34017C1.80036 2.44661 7.76893 -1.13997 13.6607 0.329158C19.5539 1.79829 23.14 7.76788 21.6707 13.6611L21.6708 13.661H21.6709Z" fill="#F3BA2F"/>
<path fill-rule="evenodd" clip-rule="evenodd" d="M11.0024 6.98135L8.15403 9.82974L8.15409 9.82962L6.49681 8.17229L11.0024 3.66669L15.5095 8.17364L13.8521 9.83097L11.0024 6.98135ZM5.32632 9.34241L3.66893 11L5.3262 12.6571L6.9836 10.9997L5.32632 9.34241ZM8.15387 12.1705L11.0023 15.0187L13.8519 12.1691L15.5101 13.8256L15.5093 13.8265L11.0023 18.3334L6.49665 13.8278L6.4943 13.8254L8.15387 12.1705ZM16.6785 9.34335L15.0211 11.0007L16.6784 12.658L18.3358 11.0006L16.6785 9.34335Z" fill="white"/>
<path d="M12.6834 10.9991H12.6841L11.0025 9.31738L9.7595 10.56L9.61671 10.7029L9.3222 10.9974L9.31985 10.9997L9.3222 11.0021L11.0025 12.6826L12.6842 11.0009L12.685 10.9999L12.6835 10.9991" fill="white"/>
</svg>
